%TF.GenerationSoftware,KiCad,Pcbnew,10.0.5*%
%TF.CreationDate,2026-09-20T12:33:09+04:00*%
%TF.ProjectId,The Raw Alarm Clock,54686520-5261-4772-9041-6c61726d2043,rev?*%
%TF.SameCoordinates,Original*%
%TF.FileFunction,Legend,Top*%
%TF.FilePolarity,Positive*%
%FSLAX46Y46*%
G04 Gerber Fmt 4.6, Leading zero omitted, Abs format (unit mm)*
G04 Created by KiCad (PCBNEW 10.0.5) date 2026-09-20 12:33:09*
%MOMM*%
%LPD*%
G01*
G04 APERTURE LIST*
%ADD10C,0.150000*%
%ADD11C,0.120000*%
G04 APERTURE END LIST*
D10*
X170908207Y-107259875D02*
X170574874Y-106783684D01*
X170336779Y-107259875D02*
X170336779Y-106259875D01*
X170336779Y-106259875D02*
X170717731Y-106259875D01*
X170717731Y-106259875D02*
X170812969Y-106307494D01*
X170812969Y-106307494D02*
X170860588Y-106355113D01*
X170860588Y-106355113D02*
X170908207Y-106450351D01*
X170908207Y-106450351D02*
X170908207Y-106593208D01*
X170908207Y-106593208D02*
X170860588Y-106688446D01*
X170860588Y-106688446D02*
X170812969Y-106736065D01*
X170812969Y-106736065D02*
X170717731Y-106783684D01*
X170717731Y-106783684D02*
X170336779Y-106783684D01*
X171289160Y-106974160D02*
X171765350Y-106974160D01*
X171193922Y-107259875D02*
X171527255Y-106259875D01*
X171527255Y-106259875D02*
X171860588Y-107259875D01*
X172098684Y-106259875D02*
X172336779Y-107259875D01*
X172336779Y-107259875D02*
X172527255Y-106545589D01*
X172527255Y-106545589D02*
X172717731Y-107259875D01*
X172717731Y-107259875D02*
X172955827Y-106259875D01*
X174051065Y-106974160D02*
X174527255Y-106974160D01*
X173955827Y-107259875D02*
X174289160Y-106259875D01*
X174289160Y-106259875D02*
X174622493Y-107259875D01*
X175432017Y-107259875D02*
X174955827Y-107259875D01*
X174955827Y-107259875D02*
X174955827Y-106259875D01*
X175717732Y-106974160D02*
X176193922Y-106974160D01*
X175622494Y-107259875D02*
X175955827Y-106259875D01*
X175955827Y-106259875D02*
X176289160Y-107259875D01*
X177193922Y-107259875D02*
X176860589Y-106783684D01*
X176622494Y-107259875D02*
X176622494Y-106259875D01*
X176622494Y-106259875D02*
X177003446Y-106259875D01*
X177003446Y-106259875D02*
X177098684Y-106307494D01*
X177098684Y-106307494D02*
X177146303Y-106355113D01*
X177146303Y-106355113D02*
X177193922Y-106450351D01*
X177193922Y-106450351D02*
X177193922Y-106593208D01*
X177193922Y-106593208D02*
X177146303Y-106688446D01*
X177146303Y-106688446D02*
X177098684Y-106736065D01*
X177098684Y-106736065D02*
X177003446Y-106783684D01*
X177003446Y-106783684D02*
X176622494Y-106783684D01*
X177622494Y-107259875D02*
X177622494Y-106259875D01*
X177622494Y-106259875D02*
X177955827Y-106974160D01*
X177955827Y-106974160D02*
X178289160Y-106259875D01*
X178289160Y-106259875D02*
X178289160Y-107259875D01*
X180098684Y-107164636D02*
X180051065Y-107212256D01*
X180051065Y-107212256D02*
X179908208Y-107259875D01*
X179908208Y-107259875D02*
X179812970Y-107259875D01*
X179812970Y-107259875D02*
X179670113Y-107212256D01*
X179670113Y-107212256D02*
X179574875Y-107117017D01*
X179574875Y-107117017D02*
X179527256Y-107021779D01*
X179527256Y-107021779D02*
X179479637Y-106831303D01*
X179479637Y-106831303D02*
X179479637Y-106688446D01*
X179479637Y-106688446D02*
X179527256Y-106497970D01*
X179527256Y-106497970D02*
X179574875Y-106402732D01*
X179574875Y-106402732D02*
X179670113Y-106307494D01*
X179670113Y-106307494D02*
X179812970Y-106259875D01*
X179812970Y-106259875D02*
X179908208Y-106259875D01*
X179908208Y-106259875D02*
X180051065Y-106307494D01*
X180051065Y-106307494D02*
X180098684Y-106355113D01*
X181003446Y-107259875D02*
X180527256Y-107259875D01*
X180527256Y-107259875D02*
X180527256Y-106259875D01*
X181527256Y-106259875D02*
X181717732Y-106259875D01*
X181717732Y-106259875D02*
X181812970Y-106307494D01*
X181812970Y-106307494D02*
X181908208Y-106402732D01*
X181908208Y-106402732D02*
X181955827Y-106593208D01*
X181955827Y-106593208D02*
X181955827Y-106926541D01*
X181955827Y-106926541D02*
X181908208Y-107117017D01*
X181908208Y-107117017D02*
X181812970Y-107212256D01*
X181812970Y-107212256D02*
X181717732Y-107259875D01*
X181717732Y-107259875D02*
X181527256Y-107259875D01*
X181527256Y-107259875D02*
X181432018Y-107212256D01*
X181432018Y-107212256D02*
X181336780Y-107117017D01*
X181336780Y-107117017D02*
X181289161Y-106926541D01*
X181289161Y-106926541D02*
X181289161Y-106593208D01*
X181289161Y-106593208D02*
X181336780Y-106402732D01*
X181336780Y-106402732D02*
X181432018Y-106307494D01*
X181432018Y-106307494D02*
X181527256Y-106259875D01*
X182955827Y-107164636D02*
X182908208Y-107212256D01*
X182908208Y-107212256D02*
X182765351Y-107259875D01*
X182765351Y-107259875D02*
X182670113Y-107259875D01*
X182670113Y-107259875D02*
X182527256Y-107212256D01*
X182527256Y-107212256D02*
X182432018Y-107117017D01*
X182432018Y-107117017D02*
X182384399Y-107021779D01*
X182384399Y-107021779D02*
X182336780Y-106831303D01*
X182336780Y-106831303D02*
X182336780Y-106688446D01*
X182336780Y-106688446D02*
X182384399Y-106497970D01*
X182384399Y-106497970D02*
X182432018Y-106402732D01*
X182432018Y-106402732D02*
X182527256Y-106307494D01*
X182527256Y-106307494D02*
X182670113Y-106259875D01*
X182670113Y-106259875D02*
X182765351Y-106259875D01*
X182765351Y-106259875D02*
X182908208Y-106307494D01*
X182908208Y-106307494D02*
X182955827Y-106355113D01*
X183384399Y-107259875D02*
X183384399Y-106259875D01*
X183955827Y-107259875D02*
X183527256Y-106688446D01*
X183955827Y-106259875D02*
X183384399Y-106831303D01*
X184384399Y-107164636D02*
X184432018Y-107212256D01*
X184432018Y-107212256D02*
X184384399Y-107259875D01*
X184384399Y-107259875D02*
X184336780Y-107212256D01*
X184336780Y-107212256D02*
X184384399Y-107164636D01*
X184384399Y-107164636D02*
X184384399Y-107259875D01*
X184384399Y-106878922D02*
X184336780Y-106307494D01*
X184336780Y-106307494D02*
X184384399Y-106259875D01*
X184384399Y-106259875D02*
X184432018Y-106307494D01*
X184432018Y-106307494D02*
X184384399Y-106878922D01*
X184384399Y-106878922D02*
X184384399Y-106259875D01*
X170670112Y-108346009D02*
X170812969Y-108393628D01*
X170812969Y-108393628D02*
X170860588Y-108441247D01*
X170860588Y-108441247D02*
X170908207Y-108536485D01*
X170908207Y-108536485D02*
X170908207Y-108679342D01*
X170908207Y-108679342D02*
X170860588Y-108774580D01*
X170860588Y-108774580D02*
X170812969Y-108822200D01*
X170812969Y-108822200D02*
X170717731Y-108869819D01*
X170717731Y-108869819D02*
X170336779Y-108869819D01*
X170336779Y-108869819D02*
X170336779Y-107869819D01*
X170336779Y-107869819D02*
X170670112Y-107869819D01*
X170670112Y-107869819D02*
X170765350Y-107917438D01*
X170765350Y-107917438D02*
X170812969Y-107965057D01*
X170812969Y-107965057D02*
X170860588Y-108060295D01*
X170860588Y-108060295D02*
X170860588Y-108155533D01*
X170860588Y-108155533D02*
X170812969Y-108250771D01*
X170812969Y-108250771D02*
X170765350Y-108298390D01*
X170765350Y-108298390D02*
X170670112Y-108346009D01*
X170670112Y-108346009D02*
X170336779Y-108346009D01*
X171527255Y-108393628D02*
X171527255Y-108869819D01*
X171193922Y-107869819D02*
X171527255Y-108393628D01*
X171527255Y-108393628D02*
X171860588Y-107869819D01*
X172908208Y-108584104D02*
X173384398Y-108584104D01*
X172812970Y-108869819D02*
X173146303Y-107869819D01*
X173146303Y-107869819D02*
X173479636Y-108869819D01*
X173812970Y-108869819D02*
X173812970Y-107869819D01*
X173812970Y-107869819D02*
X174051065Y-107869819D01*
X174051065Y-107869819D02*
X174193922Y-107917438D01*
X174193922Y-107917438D02*
X174289160Y-108012676D01*
X174289160Y-108012676D02*
X174336779Y-108107914D01*
X174336779Y-108107914D02*
X174384398Y-108298390D01*
X174384398Y-108298390D02*
X174384398Y-108441247D01*
X174384398Y-108441247D02*
X174336779Y-108631723D01*
X174336779Y-108631723D02*
X174289160Y-108726961D01*
X174289160Y-108726961D02*
X174193922Y-108822200D01*
X174193922Y-108822200D02*
X174051065Y-108869819D01*
X174051065Y-108869819D02*
X173812970Y-108869819D01*
X174812970Y-108869819D02*
X174812970Y-107869819D01*
X175146303Y-107869819D02*
X175717731Y-107869819D01*
X175432017Y-108869819D02*
X175432017Y-107869819D01*
X176241541Y-108393628D02*
X176241541Y-108869819D01*
X175908208Y-107869819D02*
X176241541Y-108393628D01*
X176241541Y-108393628D02*
X176574874Y-107869819D01*
X176860589Y-108584104D02*
X177336779Y-108584104D01*
X176765351Y-108869819D02*
X177098684Y-107869819D01*
X177098684Y-107869819D02*
X177432017Y-108869819D01*
X178812970Y-107869819D02*
X178812970Y-108584104D01*
X178812970Y-108584104D02*
X178765351Y-108726961D01*
X178765351Y-108726961D02*
X178670113Y-108822200D01*
X178670113Y-108822200D02*
X178527256Y-108869819D01*
X178527256Y-108869819D02*
X178432018Y-108869819D01*
X179241542Y-108584104D02*
X179717732Y-108584104D01*
X179146304Y-108869819D02*
X179479637Y-107869819D01*
X179479637Y-107869819D02*
X179812970Y-108869819D01*
X180146304Y-108869819D02*
X180146304Y-107869819D01*
X180622494Y-108869819D02*
X180622494Y-107869819D01*
X180622494Y-107869819D02*
X181193922Y-108869819D01*
X181193922Y-108869819D02*
X181193922Y-107869819D01*
X182432018Y-108774580D02*
X182479637Y-108822200D01*
X182479637Y-108822200D02*
X182432018Y-108869819D01*
X182432018Y-108869819D02*
X182384399Y-108822200D01*
X182384399Y-108822200D02*
X182432018Y-108774580D01*
X182432018Y-108774580D02*
X182432018Y-108869819D01*
X182432018Y-108250771D02*
X182479637Y-108298390D01*
X182479637Y-108298390D02*
X182432018Y-108346009D01*
X182432018Y-108346009D02*
X182384399Y-108298390D01*
X182384399Y-108298390D02*
X182432018Y-108250771D01*
X182432018Y-108250771D02*
X182432018Y-108346009D01*
X182812970Y-109250771D02*
X182860589Y-109203152D01*
X182860589Y-109203152D02*
X182955827Y-109060295D01*
X182955827Y-109060295D02*
X183003446Y-108965057D01*
X183003446Y-108965057D02*
X183051065Y-108822200D01*
X183051065Y-108822200D02*
X183098684Y-108584104D01*
X183098684Y-108584104D02*
X183098684Y-108393628D01*
X183098684Y-108393628D02*
X183051065Y-108155533D01*
X183051065Y-108155533D02*
X183003446Y-108012676D01*
X183003446Y-108012676D02*
X182955827Y-107917438D01*
X182955827Y-107917438D02*
X182860589Y-107774580D01*
X182860589Y-107774580D02*
X182812970Y-107726961D01*
X191388095Y-101804819D02*
X191388095Y-100804819D01*
X191388095Y-101281009D02*
X191959523Y-101281009D01*
X191959523Y-101804819D02*
X191959523Y-100804819D01*
X192864285Y-101138152D02*
X192864285Y-101804819D01*
X192626190Y-100757200D02*
X192388095Y-101471485D01*
X192388095Y-101471485D02*
X193007142Y-101471485D01*
X105238095Y-61304819D02*
X105238095Y-60304819D01*
X105238095Y-60781009D02*
X105809523Y-60781009D01*
X105809523Y-61304819D02*
X105809523Y-60304819D01*
X106809523Y-61304819D02*
X106238095Y-61304819D01*
X106523809Y-61304819D02*
X106523809Y-60304819D01*
X106523809Y-60304819D02*
X106428571Y-60447676D01*
X106428571Y-60447676D02*
X106333333Y-60542914D01*
X106333333Y-60542914D02*
X106238095Y-60590533D01*
X161666667Y-85533200D02*
X161809524Y-85580819D01*
X161809524Y-85580819D02*
X162047619Y-85580819D01*
X162047619Y-85580819D02*
X162142857Y-85533200D01*
X162142857Y-85533200D02*
X162190476Y-85485580D01*
X162190476Y-85485580D02*
X162238095Y-85390342D01*
X162238095Y-85390342D02*
X162238095Y-85295104D01*
X162238095Y-85295104D02*
X162190476Y-85199866D01*
X162190476Y-85199866D02*
X162142857Y-85152247D01*
X162142857Y-85152247D02*
X162047619Y-85104628D01*
X162047619Y-85104628D02*
X161857143Y-85057009D01*
X161857143Y-85057009D02*
X161761905Y-85009390D01*
X161761905Y-85009390D02*
X161714286Y-84961771D01*
X161714286Y-84961771D02*
X161666667Y-84866533D01*
X161666667Y-84866533D02*
X161666667Y-84771295D01*
X161666667Y-84771295D02*
X161714286Y-84676057D01*
X161714286Y-84676057D02*
X161761905Y-84628438D01*
X161761905Y-84628438D02*
X161857143Y-84580819D01*
X161857143Y-84580819D02*
X162095238Y-84580819D01*
X162095238Y-84580819D02*
X162238095Y-84628438D01*
X162571429Y-84580819D02*
X162809524Y-85580819D01*
X162809524Y-85580819D02*
X163000000Y-84866533D01*
X163000000Y-84866533D02*
X163190476Y-85580819D01*
X163190476Y-85580819D02*
X163428572Y-84580819D01*
X163714286Y-84580819D02*
X164333333Y-84580819D01*
X164333333Y-84580819D02*
X164000000Y-84961771D01*
X164000000Y-84961771D02*
X164142857Y-84961771D01*
X164142857Y-84961771D02*
X164238095Y-85009390D01*
X164238095Y-85009390D02*
X164285714Y-85057009D01*
X164285714Y-85057009D02*
X164333333Y-85152247D01*
X164333333Y-85152247D02*
X164333333Y-85390342D01*
X164333333Y-85390342D02*
X164285714Y-85485580D01*
X164285714Y-85485580D02*
X164238095Y-85533200D01*
X164238095Y-85533200D02*
X164142857Y-85580819D01*
X164142857Y-85580819D02*
X163857143Y-85580819D01*
X163857143Y-85580819D02*
X163761905Y-85533200D01*
X163761905Y-85533200D02*
X163714286Y-85485580D01*
X193738095Y-60304819D02*
X193738095Y-59304819D01*
X193738095Y-59781009D02*
X194309523Y-59781009D01*
X194309523Y-60304819D02*
X194309523Y-59304819D01*
X194738095Y-59400057D02*
X194785714Y-59352438D01*
X194785714Y-59352438D02*
X194880952Y-59304819D01*
X194880952Y-59304819D02*
X195119047Y-59304819D01*
X195119047Y-59304819D02*
X195214285Y-59352438D01*
X195214285Y-59352438D02*
X195261904Y-59400057D01*
X195261904Y-59400057D02*
X195309523Y-59495295D01*
X195309523Y-59495295D02*
X195309523Y-59590533D01*
X195309523Y-59590533D02*
X195261904Y-59733390D01*
X195261904Y-59733390D02*
X194690476Y-60304819D01*
X194690476Y-60304819D02*
X195309523Y-60304819D01*
X123666667Y-85573200D02*
X123809524Y-85620819D01*
X123809524Y-85620819D02*
X124047619Y-85620819D01*
X124047619Y-85620819D02*
X124142857Y-85573200D01*
X124142857Y-85573200D02*
X124190476Y-85525580D01*
X124190476Y-85525580D02*
X124238095Y-85430342D01*
X124238095Y-85430342D02*
X124238095Y-85335104D01*
X124238095Y-85335104D02*
X124190476Y-85239866D01*
X124190476Y-85239866D02*
X124142857Y-85192247D01*
X124142857Y-85192247D02*
X124047619Y-85144628D01*
X124047619Y-85144628D02*
X123857143Y-85097009D01*
X123857143Y-85097009D02*
X123761905Y-85049390D01*
X123761905Y-85049390D02*
X123714286Y-85001771D01*
X123714286Y-85001771D02*
X123666667Y-84906533D01*
X123666667Y-84906533D02*
X123666667Y-84811295D01*
X123666667Y-84811295D02*
X123714286Y-84716057D01*
X123714286Y-84716057D02*
X123761905Y-84668438D01*
X123761905Y-84668438D02*
X123857143Y-84620819D01*
X123857143Y-84620819D02*
X124095238Y-84620819D01*
X124095238Y-84620819D02*
X124238095Y-84668438D01*
X124571429Y-84620819D02*
X124809524Y-85620819D01*
X124809524Y-85620819D02*
X125000000Y-84906533D01*
X125000000Y-84906533D02*
X125190476Y-85620819D01*
X125190476Y-85620819D02*
X125428572Y-84620819D01*
X126333333Y-85620819D02*
X125761905Y-85620819D01*
X126047619Y-85620819D02*
X126047619Y-84620819D01*
X126047619Y-84620819D02*
X125952381Y-84763676D01*
X125952381Y-84763676D02*
X125857143Y-84858914D01*
X125857143Y-84858914D02*
X125761905Y-84906533D01*
X180586667Y-85533200D02*
X180729524Y-85580819D01*
X180729524Y-85580819D02*
X180967619Y-85580819D01*
X180967619Y-85580819D02*
X181062857Y-85533200D01*
X181062857Y-85533200D02*
X181110476Y-85485580D01*
X181110476Y-85485580D02*
X181158095Y-85390342D01*
X181158095Y-85390342D02*
X181158095Y-85295104D01*
X181158095Y-85295104D02*
X181110476Y-85199866D01*
X181110476Y-85199866D02*
X181062857Y-85152247D01*
X181062857Y-85152247D02*
X180967619Y-85104628D01*
X180967619Y-85104628D02*
X180777143Y-85057009D01*
X180777143Y-85057009D02*
X180681905Y-85009390D01*
X180681905Y-85009390D02*
X180634286Y-84961771D01*
X180634286Y-84961771D02*
X180586667Y-84866533D01*
X180586667Y-84866533D02*
X180586667Y-84771295D01*
X180586667Y-84771295D02*
X180634286Y-84676057D01*
X180634286Y-84676057D02*
X180681905Y-84628438D01*
X180681905Y-84628438D02*
X180777143Y-84580819D01*
X180777143Y-84580819D02*
X181015238Y-84580819D01*
X181015238Y-84580819D02*
X181158095Y-84628438D01*
X181491429Y-84580819D02*
X181729524Y-85580819D01*
X181729524Y-85580819D02*
X181920000Y-84866533D01*
X181920000Y-84866533D02*
X182110476Y-85580819D01*
X182110476Y-85580819D02*
X182348572Y-84580819D01*
X183158095Y-84914152D02*
X183158095Y-85580819D01*
X182920000Y-84533200D02*
X182681905Y-85247485D01*
X182681905Y-85247485D02*
X183300952Y-85247485D01*
X105238095Y-101304819D02*
X105238095Y-100304819D01*
X105238095Y-100781009D02*
X105809523Y-100781009D01*
X105809523Y-101304819D02*
X105809523Y-100304819D01*
X106190476Y-100304819D02*
X106809523Y-100304819D01*
X106809523Y-100304819D02*
X106476190Y-100685771D01*
X106476190Y-100685771D02*
X106619047Y-100685771D01*
X106619047Y-100685771D02*
X106714285Y-100733390D01*
X106714285Y-100733390D02*
X106761904Y-100781009D01*
X106761904Y-100781009D02*
X106809523Y-100876247D01*
X106809523Y-100876247D02*
X106809523Y-101114342D01*
X106809523Y-101114342D02*
X106761904Y-101209580D01*
X106761904Y-101209580D02*
X106714285Y-101257200D01*
X106714285Y-101257200D02*
X106619047Y-101304819D01*
X106619047Y-101304819D02*
X106333333Y-101304819D01*
X106333333Y-101304819D02*
X106238095Y-101257200D01*
X106238095Y-101257200D02*
X106190476Y-101209580D01*
X142666667Y-85533200D02*
X142809524Y-85580819D01*
X142809524Y-85580819D02*
X143047619Y-85580819D01*
X143047619Y-85580819D02*
X143142857Y-85533200D01*
X143142857Y-85533200D02*
X143190476Y-85485580D01*
X143190476Y-85485580D02*
X143238095Y-85390342D01*
X143238095Y-85390342D02*
X143238095Y-85295104D01*
X143238095Y-85295104D02*
X143190476Y-85199866D01*
X143190476Y-85199866D02*
X143142857Y-85152247D01*
X143142857Y-85152247D02*
X143047619Y-85104628D01*
X143047619Y-85104628D02*
X142857143Y-85057009D01*
X142857143Y-85057009D02*
X142761905Y-85009390D01*
X142761905Y-85009390D02*
X142714286Y-84961771D01*
X142714286Y-84961771D02*
X142666667Y-84866533D01*
X142666667Y-84866533D02*
X142666667Y-84771295D01*
X142666667Y-84771295D02*
X142714286Y-84676057D01*
X142714286Y-84676057D02*
X142761905Y-84628438D01*
X142761905Y-84628438D02*
X142857143Y-84580819D01*
X142857143Y-84580819D02*
X143095238Y-84580819D01*
X143095238Y-84580819D02*
X143238095Y-84628438D01*
X143571429Y-84580819D02*
X143809524Y-85580819D01*
X143809524Y-85580819D02*
X144000000Y-84866533D01*
X144000000Y-84866533D02*
X144190476Y-85580819D01*
X144190476Y-85580819D02*
X144428572Y-84580819D01*
X144761905Y-84676057D02*
X144809524Y-84628438D01*
X144809524Y-84628438D02*
X144904762Y-84580819D01*
X144904762Y-84580819D02*
X145142857Y-84580819D01*
X145142857Y-84580819D02*
X145238095Y-84628438D01*
X145238095Y-84628438D02*
X145285714Y-84676057D01*
X145285714Y-84676057D02*
X145333333Y-84771295D01*
X145333333Y-84771295D02*
X145333333Y-84866533D01*
X145333333Y-84866533D02*
X145285714Y-85009390D01*
X145285714Y-85009390D02*
X144714286Y-85580819D01*
X144714286Y-85580819D02*
X145333333Y-85580819D01*
%TO.C,SW3*%
D11*
X156015000Y-86015000D02*
X169985000Y-86015000D01*
X156015000Y-99985000D02*
X156015000Y-86015000D01*
X169985000Y-86015000D02*
X169985000Y-99985000D01*
X169985000Y-99985000D02*
X156015000Y-99985000D01*
%TO.C,SW1*%
X118015000Y-86055000D02*
X131985000Y-86055000D01*
X118015000Y-100025000D02*
X118015000Y-86055000D01*
X131985000Y-86055000D02*
X131985000Y-100025000D01*
X131985000Y-100025000D02*
X118015000Y-100025000D01*
%TO.C,SW4*%
X174935000Y-86015000D02*
X188905000Y-86015000D01*
X174935000Y-99985000D02*
X174935000Y-86015000D01*
X188905000Y-86015000D02*
X188905000Y-99985000D01*
X188905000Y-99985000D02*
X174935000Y-99985000D01*
%TO.C,SW2*%
X137015000Y-86015000D02*
X150985000Y-86015000D01*
X137015000Y-99985000D02*
X137015000Y-86015000D01*
X150985000Y-86015000D02*
X150985000Y-99985000D01*
X150985000Y-99985000D02*
X137015000Y-99985000D01*
%TD*%
M02*
