M48
; DRILL file KiCad 10.0.5 date 2026-09-20T12:33:14
; FORMAT={-:-/ absolute / metric / decimal}
; #@! TF.CreationDate,2026-09-20T12:33:14+04:00
; #@! TF.GenerationSoftware,Kicad,Pcbnew,10.0.5
; #@! TF.FileFunction,Plated,1,2,PTH
FMAT,2
METRIC
; #@! TA.AperFunction,Plated,PTH,ViaDrill
T1C0.300
; #@! TA.AperFunction,Plated,PTH,ComponentDrill
T2C0.889
; #@! TA.AperFunction,Plated,PTH,ComponentDrill
T3C1.000
; #@! TA.AperFunction,Plated,PTH,ComponentDrill
T4C1.500
%
G90
G05
T1
X142.221Y-70.278
T2
X147.88Y-65.198
X147.88Y-67.739
X147.88Y-70.278
X147.88Y-72.819
X147.88Y-75.358
X147.88Y-77.898
X147.88Y-80.438
X163.12Y-65.198
X163.12Y-67.739
X163.12Y-70.278
X163.12Y-72.819
X163.12Y-75.358
X163.12Y-77.898
X163.12Y-80.438
T3
X119.92Y-79.0
X122.46Y-79.0
X125.0Y-79.0
X127.54Y-79.0
X130.08Y-79.0
X132.62Y-79.0
X135.16Y-79.0
X137.7Y-79.0
X184.0Y-72.2
X184.0Y-79.8
T4
X121.19Y-90.5
X127.54Y-87.96
X140.19Y-90.46
X146.54Y-87.92
X159.19Y-90.46
X165.54Y-87.92
X178.11Y-90.46
X184.46Y-87.92
M30
