%TF.GenerationSoftware,KiCad,Pcbnew,10.0.5*%
%TF.CreationDate,2026-09-20T12:33:09+04:00*%
%TF.ProjectId,The Raw Alarm Clock,54686520-5261-4772-9041-6c61726d2043,rev?*%
%TF.SameCoordinates,Original*%
%TF.FileFunction,Soldermask,Top*%
%TF.FilePolarity,Negative*%
%FSLAX46Y46*%
G04 Gerber Fmt 4.6, Leading zero omitted, Abs format (unit mm)*
G04 Created by KiCad (PCBNEW 10.0.5) date 2026-09-20 12:33:09*
%MOMM*%
%LPD*%
G01*
G04 APERTURE LIST*
%ADD10C,3.200000*%
%ADD11C,1.700000*%
%ADD12C,4.000000*%
%ADD13C,2.200000*%
%ADD14R,1.700000X1.700000*%
%ADD15C,1.524000*%
%ADD16R,2.000000X2.000000*%
%ADD17C,2.000000*%
G04 APERTURE END LIST*
D10*
%TO.C,H4*%
X195000000Y-105500000D03*
%TD*%
%TO.C,H1*%
X106000000Y-65000000D03*
%TD*%
D11*
%TO.C,SW3*%
X157920000Y-93000000D03*
D12*
X163000000Y-93000000D03*
D11*
X168080000Y-93000000D03*
D13*
X165540000Y-87920000D03*
X159190000Y-90460000D03*
%TD*%
D10*
%TO.C,H2*%
X194500000Y-64000000D03*
%TD*%
D11*
%TO.C,SW1*%
X119920000Y-93040000D03*
D12*
X125000000Y-93040000D03*
D11*
X130080000Y-93040000D03*
D13*
X127540000Y-87960000D03*
X121190000Y-90500000D03*
%TD*%
D11*
%TO.C,SW4*%
X176840000Y-93000000D03*
D12*
X181920000Y-93000000D03*
D11*
X187000000Y-93000000D03*
D13*
X184460000Y-87920000D03*
X178110000Y-90460000D03*
%TD*%
D10*
%TO.C,H3*%
X106000000Y-105000000D03*
%TD*%
D11*
%TO.C,SW2*%
X138920000Y-93000000D03*
D12*
X144000000Y-93000000D03*
D11*
X149080000Y-93000000D03*
D13*
X146540000Y-87920000D03*
X140190000Y-90460000D03*
%TD*%
D14*
%TO.C,J1*%
X137700000Y-79000000D03*
D11*
X135160000Y-79000000D03*
X132620000Y-79000000D03*
X130080000Y-79000000D03*
X127540000Y-79000000D03*
X125000000Y-79000000D03*
X122460000Y-79000000D03*
X119920000Y-79000000D03*
%TD*%
D15*
%TO.C,U1*%
X163120000Y-65198500D03*
X163120000Y-67738500D03*
X163120000Y-70278500D03*
X163120000Y-72818500D03*
X163120000Y-75358500D03*
X163120000Y-77898500D03*
X163120000Y-80438500D03*
X147880000Y-80438500D03*
X147880000Y-77898500D03*
X147880000Y-75358500D03*
X147880000Y-72818500D03*
X147880000Y-70278500D03*
X147880000Y-67738500D03*
X147880000Y-65198500D03*
%TD*%
D16*
%TO.C,BZ1*%
X184000000Y-72200000D03*
D17*
X184000000Y-79800000D03*
%TD*%
M02*
