%TF.GenerationSoftware,KiCad,Pcbnew,10.0.5*%
%TF.CreationDate,2026-09-20T12:33:09+04:00*%
%TF.ProjectId,The Raw Alarm Clock,54686520-5261-4772-9041-6c61726d2043,rev?*%
%TF.SameCoordinates,Original*%
%TF.FileFunction,Copper,L2,Bot*%
%TF.FilePolarity,Positive*%
%FSLAX46Y46*%
G04 Gerber Fmt 4.6, Leading zero omitted, Abs format (unit mm)*
G04 Created by KiCad (PCBNEW 10.0.5) date 2026-09-20 12:33:09*
%MOMM*%
%LPD*%
G01*
G04 APERTURE LIST*
G04 Aperture macros list*
%AMRoundRect*
0 Rectangle with rounded corners*
0 $1 Rounding radius*
0 $2 $3 $4 $5 $6 $7 $8 $9 X,Y pos of 4 corners*
0 Add a 4 corners polygon primitive as box body*
4,1,4,$2,$3,$4,$5,$6,$7,$8,$9,$2,$3,0*
0 Add four circle primitives for the rounded corners*
1,1,$1+$1,$2,$3*
1,1,$1+$1,$4,$5*
1,1,$1+$1,$6,$7*
1,1,$1+$1,$8,$9*
0 Add four rect primitives between the rounded corners*
20,1,$1+$1,$2,$3,$4,$5,0*
20,1,$1+$1,$4,$5,$6,$7,0*
20,1,$1+$1,$6,$7,$8,$9,0*
20,1,$1+$1,$8,$9,$2,$3,0*%
G04 Aperture macros list end*
%TA.AperFunction,ComponentPad*%
%ADD10C,2.200000*%
%TD*%
%TA.AperFunction,ComponentPad*%
%ADD11R,1.700000X1.700000*%
%TD*%
%TA.AperFunction,ComponentPad*%
%ADD12C,1.700000*%
%TD*%
%TA.AperFunction,ComponentPad*%
%ADD13C,1.524000*%
%TD*%
%TA.AperFunction,SMDPad,CuDef*%
%ADD14RoundRect,0.152400X-1.063600X-0.609600X1.063600X-0.609600X1.063600X0.609600X-1.063600X0.609600X0*%
%TD*%
%TA.AperFunction,SMDPad,CuDef*%
%ADD15RoundRect,0.152400X1.063600X0.609600X-1.063600X0.609600X-1.063600X-0.609600X1.063600X-0.609600X0*%
%TD*%
%TA.AperFunction,ComponentPad*%
%ADD16R,2.000000X2.000000*%
%TD*%
%TA.AperFunction,ComponentPad*%
%ADD17C,2.000000*%
%TD*%
%TA.AperFunction,ViaPad*%
%ADD18C,0.600000*%
%TD*%
%TA.AperFunction,Conductor*%
%ADD19C,0.200000*%
%TD*%
G04 APERTURE END LIST*
D10*
%TO.P,SW3,1,1_1*%
%TO.N,GND*%
X165540000Y-87920000D03*
%TO.P,SW3,2,2_2*%
%TO.N,Net-(U1-D1)*%
X159190000Y-90460000D03*
%TD*%
%TO.P,SW1,1,1_1*%
%TO.N,GND*%
X127540000Y-87960000D03*
%TO.P,SW1,2,2_2*%
%TO.N,Net-(U1-D3)*%
X121190000Y-90500000D03*
%TD*%
%TO.P,SW4,1,1_1*%
%TO.N,GND*%
X184460000Y-87920000D03*
%TO.P,SW4,2,2_2*%
%TO.N,Net-(U1-D0)*%
X178110000Y-90460000D03*
%TD*%
%TO.P,SW2,1,1_1*%
%TO.N,GND*%
X146540000Y-87920000D03*
%TO.P,SW2,2,2_2*%
%TO.N,Net-(U1-D2)*%
X140190000Y-90460000D03*
%TD*%
D11*
%TO.P,J1,1,Pin_1_1*%
%TO.N,GND*%
X137700000Y-79000000D03*
D12*
%TO.P,J1,2,Pin_2_2*%
%TO.N,+3.3V*%
X135160000Y-79000000D03*
%TO.P,J1,3,Pin_3_3*%
%TO.N,/SCL*%
X132620000Y-79000000D03*
%TO.P,J1,4,Pin_4_4*%
%TO.N,/SDA*%
X130080000Y-79000000D03*
%TO.P,J1,5,Pin_5_5*%
%TO.N,/RST*%
X127540000Y-79000000D03*
%TO.P,J1,6,Pin_6_6*%
%TO.N,/DC*%
X125000000Y-79000000D03*
%TO.P,J1,7,Pin_7_7*%
%TO.N,/CS*%
X122460000Y-79000000D03*
%TO.P,J1,8,Pin_8_8*%
%TO.N,/BL*%
X119920000Y-79000000D03*
%TD*%
D13*
%TO.P,U1,1,D0_1*%
%TO.N,Net-(U1-D0)*%
X163120000Y-65198500D03*
D14*
X163955000Y-65198500D03*
D13*
%TO.P,U1,2,D1_2*%
%TO.N,Net-(U1-D1)*%
X163120000Y-67738500D03*
D14*
X163955000Y-67738500D03*
D13*
%TO.P,U1,3,D2_3*%
%TO.N,Net-(U1-D2)*%
X163120000Y-70278500D03*
D14*
X163955000Y-70278500D03*
D13*
%TO.P,U1,4,D3_4*%
%TO.N,Net-(U1-D3)*%
X163120000Y-72818500D03*
D14*
X163955000Y-72818500D03*
D13*
%TO.P,U1,5,D4_5*%
%TO.N,/DC*%
X163120000Y-75358500D03*
D14*
X163955000Y-75358500D03*
D13*
%TO.P,U1,6,D5_6*%
%TO.N,/CS*%
X163120000Y-77898500D03*
D14*
X163955000Y-77898500D03*
D13*
%TO.P,U1,7,D6_7*%
%TO.N,/BL*%
X163120000Y-80438500D03*
D14*
X163955000Y-80438500D03*
D15*
%TO.P,U1,8,D7_8*%
%TO.N,Net-(BZ1-+)*%
X147045000Y-80438500D03*
D13*
X147880000Y-80438500D03*
D15*
%TO.P,U1,9,D8_9*%
%TO.N,/RST*%
X147045000Y-77898500D03*
D13*
X147880000Y-77898500D03*
D15*
%TO.P,U1,10,D9/BOOT_10*%
%TO.N,/SCL*%
X147045000Y-75358500D03*
D13*
X147880000Y-75358500D03*
D15*
%TO.P,U1,11,D10_11*%
%TO.N,/SDA*%
X147045000Y-72818500D03*
D13*
X147880000Y-72818500D03*
D15*
%TO.P,U1,12,3V3_OUT_12*%
%TO.N,+3.3V*%
X147045000Y-70278500D03*
D13*
X147880000Y-70278500D03*
D15*
%TO.P,U1,13,GND_13*%
%TO.N,GND*%
X147045000Y-67738500D03*
D13*
X147880000Y-67738500D03*
D15*
%TO.P,U1,14,VBUS_14*%
%TO.N,unconnected-(U1-VBUS-Pad14)_1*%
X147045000Y-65198500D03*
D13*
%TO.N,unconnected-(U1-VBUS-Pad14)*%
X147880000Y-65198500D03*
%TD*%
D16*
%TO.P,BZ1,1,+_1*%
%TO.N,Net-(BZ1-+)*%
X184000000Y-72200000D03*
D17*
%TO.P,BZ1,2,-_2*%
%TO.N,GND*%
X184000000Y-79800000D03*
%TD*%
D18*
%TO.N,+3.3V*%
X142221500Y-70278500D03*
%TD*%
%TO.N,GND*%
D19*
X146802370Y-67738500D02*
X137700000Y-76840870D01*
X137700000Y-76840870D02*
X137700000Y-79000000D01*
X147880000Y-67738500D02*
X146802370Y-67738500D01*
X184460000Y-80260000D02*
X184000000Y-79800000D01*
X165540000Y-87920000D02*
X184460000Y-87920000D01*
X146540000Y-87920000D02*
X137700000Y-79080000D01*
X146540000Y-87920000D02*
X165540000Y-87920000D01*
X184460000Y-87920000D02*
X184460000Y-80260000D01*
X137700000Y-79080000D02*
X137700000Y-79000000D01*
X146500000Y-87960000D02*
X146540000Y-87920000D01*
X127540000Y-87960000D02*
X146500000Y-87960000D01*
%TO.N,+3.3V*%
X142221500Y-70278500D02*
X135160000Y-77340000D01*
X135160000Y-77340000D02*
X135160000Y-79000000D01*
%TO.N,Net-(BZ1-+)*%
X184000000Y-72200000D02*
X174699500Y-81500500D01*
X174699500Y-81500500D02*
X148942000Y-81500500D01*
X148942000Y-81500500D02*
X147880000Y-80438500D01*
%TD*%
M02*
