%TF.GenerationSoftware,KiCad,Pcbnew,10.0.5*%
%TF.CreationDate,2026-09-20T12:33:09+04:00*%
%TF.ProjectId,The Raw Alarm Clock,54686520-5261-4772-9041-6c61726d2043,rev?*%
%TF.SameCoordinates,Original*%
%TF.FileFunction,Copper,L1,Top*%
%TF.FilePolarity,Positive*%
%FSLAX46Y46*%
G04 Gerber Fmt 4.6, Leading zero omitted, Abs format (unit mm)*
G04 Created by KiCad (PCBNEW 10.0.5) date 2026-09-20 12:33:09*
%MOMM*%
%LPD*%
G01*
G04 APERTURE LIST*
%TA.AperFunction,ComponentPad*%
%ADD10C,2.200000*%
%TD*%
%TA.AperFunction,ComponentPad*%
%ADD11R,1.700000X1.700000*%
%TD*%
%TA.AperFunction,ComponentPad*%
%ADD12C,1.700000*%
%TD*%
%TA.AperFunction,ComponentPad*%
%ADD13C,1.524000*%
%TD*%
%TA.AperFunction,ComponentPad*%
%ADD14R,2.000000X2.000000*%
%TD*%
%TA.AperFunction,ComponentPad*%
%ADD15C,2.000000*%
%TD*%
%TA.AperFunction,ViaPad*%
%ADD16C,0.600000*%
%TD*%
%TA.AperFunction,Conductor*%
%ADD17C,0.200000*%
%TD*%
G04 APERTURE END LIST*
D10*
%TO.P,SW3,1,1_1*%
%TO.N,GND*%
X165540000Y-87920000D03*
%TO.P,SW3,2,2_2*%
%TO.N,Net-(U1-D1)*%
X159190000Y-90460000D03*
%TD*%
%TO.P,SW1,1,1_1*%
%TO.N,GND*%
X127540000Y-87960000D03*
%TO.P,SW1,2,2_2*%
%TO.N,Net-(U1-D3)*%
X121190000Y-90500000D03*
%TD*%
%TO.P,SW4,1,1_1*%
%TO.N,GND*%
X184460000Y-87920000D03*
%TO.P,SW4,2,2_2*%
%TO.N,Net-(U1-D0)*%
X178110000Y-90460000D03*
%TD*%
%TO.P,SW2,1,1_1*%
%TO.N,GND*%
X146540000Y-87920000D03*
%TO.P,SW2,2,2_2*%
%TO.N,Net-(U1-D2)*%
X140190000Y-90460000D03*
%TD*%
D11*
%TO.P,J1,1,Pin_1_1*%
%TO.N,GND*%
X137700000Y-79000000D03*
D12*
%TO.P,J1,2,Pin_2_2*%
%TO.N,+3.3V*%
X135160000Y-79000000D03*
%TO.P,J1,3,Pin_3_3*%
%TO.N,/SCL*%
X132620000Y-79000000D03*
%TO.P,J1,4,Pin_4_4*%
%TO.N,/SDA*%
X130080000Y-79000000D03*
%TO.P,J1,5,Pin_5_5*%
%TO.N,/RST*%
X127540000Y-79000000D03*
%TO.P,J1,6,Pin_6_6*%
%TO.N,/DC*%
X125000000Y-79000000D03*
%TO.P,J1,7,Pin_7_7*%
%TO.N,/CS*%
X122460000Y-79000000D03*
%TO.P,J1,8,Pin_8_8*%
%TO.N,/BL*%
X119920000Y-79000000D03*
%TD*%
D13*
%TO.P,U1,1,D0_1*%
%TO.N,Net-(U1-D0)*%
X163120000Y-65198500D03*
%TO.P,U1,2,D1_2*%
%TO.N,Net-(U1-D1)*%
X163120000Y-67738500D03*
%TO.P,U1,3,D2_3*%
%TO.N,Net-(U1-D2)*%
X163120000Y-70278500D03*
%TO.P,U1,4,D3_4*%
%TO.N,Net-(U1-D3)*%
X163120000Y-72818500D03*
%TO.P,U1,5,D4_5*%
%TO.N,/DC*%
X163120000Y-75358500D03*
%TO.P,U1,6,D5_6*%
%TO.N,/CS*%
X163120000Y-77898500D03*
%TO.P,U1,7,D6_7*%
%TO.N,/BL*%
X163120000Y-80438500D03*
%TO.P,U1,8,D7_8*%
%TO.N,Net-(BZ1-+)*%
X147880000Y-80438500D03*
%TO.P,U1,9,D8_9*%
%TO.N,/RST*%
X147880000Y-77898500D03*
%TO.P,U1,10,D9/BOOT_10*%
%TO.N,/SCL*%
X147880000Y-75358500D03*
%TO.P,U1,11,D10_11*%
%TO.N,/SDA*%
X147880000Y-72818500D03*
%TO.P,U1,12,3V3_OUT_12*%
%TO.N,+3.3V*%
X147880000Y-70278500D03*
%TO.P,U1,13,GND_13*%
%TO.N,GND*%
X147880000Y-67738500D03*
%TO.P,U1,14,VBUS_14*%
%TO.N,unconnected-(U1-VBUS-Pad14)*%
X147880000Y-65198500D03*
%TD*%
D14*
%TO.P,BZ1,1,+_1*%
%TO.N,Net-(BZ1-+)*%
X184000000Y-72200000D03*
D15*
%TO.P,BZ1,2,-_2*%
%TO.N,GND*%
X184000000Y-79800000D03*
%TD*%
D16*
%TO.N,+3.3V*%
X142221500Y-70278500D03*
%TD*%
%TO.N,Net-(U1-D1)*%
D17*
X159190000Y-90460000D02*
X168500000Y-81150000D01*
X168500000Y-81150000D02*
X168500000Y-72000000D01*
X164238500Y-67738500D02*
X163120000Y-67738500D01*
X168500000Y-72000000D02*
X164238500Y-67738500D01*
%TO.N,Net-(U1-D3)*%
X163120000Y-72818500D02*
X166318500Y-72818500D01*
X167000000Y-73500000D02*
X167000000Y-79000000D01*
X162500000Y-83500000D02*
X128190000Y-83500000D01*
X167000000Y-79000000D02*
X162500000Y-83500000D01*
X128190000Y-83500000D02*
X121190000Y-90500000D01*
X166318500Y-72818500D02*
X167000000Y-73500000D01*
%TO.N,Net-(U1-D0)*%
X178110000Y-90460000D02*
X178110000Y-80188500D01*
X178110000Y-80188500D02*
X163120000Y-65198500D01*
%TO.N,Net-(U1-D2)*%
X140190000Y-90460000D02*
X156540000Y-90460000D01*
X156540000Y-90460000D02*
X167500000Y-79500000D01*
X167500000Y-79500000D02*
X167500000Y-72500000D01*
X167500000Y-72500000D02*
X165278500Y-70278500D01*
X165278500Y-70278500D02*
X163120000Y-70278500D01*
%TO.N,+3.3V*%
X147880000Y-70278500D02*
X142221500Y-70278500D01*
%TO.N,/SCL*%
X147880000Y-75358500D02*
X136261500Y-75358500D01*
X136261500Y-75358500D02*
X132620000Y-79000000D01*
%TO.N,/SDA*%
X136261500Y-72818500D02*
X130080000Y-79000000D01*
X147880000Y-72818500D02*
X136261500Y-72818500D01*
%TO.N,/RST*%
X147880000Y-77898500D02*
X145628500Y-80150000D01*
X128690000Y-80150000D02*
X127540000Y-79000000D01*
X145628500Y-80150000D02*
X128690000Y-80150000D01*
%TO.N,/DC*%
X157000000Y-81500000D02*
X127500000Y-81500000D01*
X163120000Y-75358500D02*
X157000000Y-81478500D01*
X127500000Y-81500000D02*
X125000000Y-79000000D01*
X157000000Y-81478500D02*
X157000000Y-81500000D01*
%TO.N,/CS*%
X122460000Y-81460000D02*
X122460000Y-79000000D01*
X122500000Y-81500000D02*
X122460000Y-81460000D01*
X163120000Y-77898500D02*
X159018500Y-82000000D01*
X159018500Y-82000000D02*
X122500000Y-82000000D01*
X122500000Y-82000000D02*
X122500000Y-81500000D01*
%TO.N,/BL*%
X119920000Y-82420000D02*
X119920000Y-79000000D01*
X120000000Y-82500000D02*
X119920000Y-82420000D01*
X161058500Y-82500000D02*
X120000000Y-82500000D01*
X163120000Y-80438500D02*
X161058500Y-82500000D01*
%TD*%
M02*
